<svg width="33" height="32" viewBox="0 0 33 32" fill="none" xmlns="http://www.w3.org/2000/svg">
    <g clip-path="url(#clip0_9584_1629)">
        <path d="M32.2621 16.0002C32.2621 24.7253 25.1892 31.7982 16.4641 31.7982C16.1365 31.7982 15.8115 31.7886 15.4892 31.7686C14.1376 31.6866 12.8313 31.434 11.5925 31.0321C11.1212 30.88 10.6594 30.7053 10.2088 30.5112C4.59479 28.0886 0.666016 22.5032 0.666016 16.0002C0.666016 7.27506 7.73893 0.202148 16.4641 0.202148C25.1892 0.202148 32.2621 7.27506 32.2621 16.0002Z" fill="#33ADC1"/>
        <path d="M15.4898 31.7683C13.6235 31.6547 11.8452 31.217 10.2094 30.5109C16.3273 22.2631 5.73633 14.4072 5.73633 14.4072L7.27983 14.0261L11.076 13.0894C11.076 13.0891 22.5041 20.0603 15.4898 31.7683Z" fill="#EAE0D3"/>
        <path d="M11.5931 31.0321C11.1218 30.88 10.66 30.7052 10.2094 30.5112C16.3273 22.2634 5.73633 14.4075 5.73633 14.4075L7.27983 14.0264C7.65395 14.3062 8.17753 14.6705 8.71196 15.1702C11.4976 17.7722 15.5387 23.3093 11.5931 31.0321Z" fill="#D6C8B0"/>
        <path d="M14.8875 8.99429C14.8875 12.4053 12.1226 15.1702 8.71136 15.1702C5.30037 15.1702 2.53543 12.4053 2.53543 8.99429C2.53543 8.48493 2.59666 7.99028 2.71333 7.51684C2.82928 7.04364 3.00019 6.59166 3.21811 6.1686L0.666016 3.61651L4.84839 4.17552L2.70296 1.51568L7.60755 2.91623L7.07288 0.202148C7.07288 0.202148 11.3396 2.56212 13.3669 4.93582C13.5205 5.1118 13.6637 5.29693 13.797 5.48978C14.4845 6.48535 14.8875 7.69233 14.8875 8.99429Z" fill="#EAE0D3"/>
        <path d="M12.0309 7.73335C12.0309 8.56862 11.3538 9.24599 10.5185 9.24599C9.68299 9.24599 9.00586 8.56862 9.00586 7.73335C9.00586 6.89784 9.68299 6.2207 10.5185 6.2207C11.3538 6.2207 12.0309 6.89784 12.0309 7.73335Z" fill="#2F373B"/>
        <path d="M26.2093 8.73139C25.5884 9.05586 24.9339 8.98233 24.4084 8.80805C23.7939 8.60508 23.3566 8.26591 23.3566 8.26591C23.3566 8.26591 21.1449 6.09469 22.8466 5.1495C23.3605 4.86457 23.7766 4.86577 24.1066 5.00751H24.1073C24.8715 5.33511 25.1783 6.40999 25.1783 6.40999C25.1783 6.40999 25.7942 4.81298 27.1567 5.29654C28.5184 5.77938 27.5552 8.02798 26.2093 8.73139Z" fill="#FF648D"/>
        <path d="M24.4084 8.80805C23.7939 8.60508 23.3566 8.26591 23.3566 8.26591C23.3566 8.26591 21.1449 6.09469 22.8466 5.1495C23.3605 4.86457 23.7766 4.86577 24.1066 5.00751C23.3535 4.96509 23.3296 7.7404 24.4084 8.80805Z" fill="#EA2F69"/>
        <path d="M11.6017 7.2508C11.6017 7.51186 11.39 7.72351 11.129 7.72351C10.8679 7.72351 10.6562 7.51186 10.6562 7.2508C10.6562 6.98997 10.8679 6.77832 11.129 6.77832C11.39 6.77832 11.6017 6.98997 11.6017 7.2508Z" fill="white"/>
        <path d="M23.909 9.46289C23.909 11.7669 17.6379 18.7625 21.7344 21.6614C22.7584 22.3863 23.8888 22.6225 25.0085 22.5695C26.128 22.6228 27.2583 22.3863 28.2826 21.6614C32.3789 18.7625 26.1077 11.7669 26.1077 9.46289" fill="#FF648D"/>
        <path d="M24.839 22.5746C23.7745 22.5977 22.7066 22.3497 21.7344 21.6614C17.6378 18.7625 23.9092 11.7667 23.9092 9.46289H24.5813C24.5813 11.7667 22.1444 18.7625 23.7364 21.6614C24.0828 22.292 24.4605 22.5534 24.839 22.5746Z" fill="#EA2F69"/>
        <path d="M24.8379 22.5749C24.8941 22.5744 24.9502 22.5722 25.0064 22.5698C24.9502 22.5768 24.8941 22.5787 24.8379 22.5749Z" fill="#EA2F69"/>
        <path d="M25.178 22.5749C25.1219 22.5787 25.0659 22.5768 25.0098 22.5698C25.0659 22.5722 25.1219 22.5744 25.178 22.5749Z" fill="#EA2F69"/>
        <path d="M29.132 9.05737L13.5025 11.641C13.5025 11.641 12.957 10.8137 12.7583 9.71691C12.5817 8.73893 12.681 7.54641 13.6915 6.53613L29.132 9.05737Z" fill="#FFD62C"/>
        <path d="M29.1315 9.05762L13.502 11.6413C13.502 11.6413 12.9564 10.814 12.7578 9.71715L29.1315 9.05762Z" fill="#FFB92E"/>
        <path d="M8.71136 15.1702C5.30037 15.1702 2.53543 12.4052 2.53543 8.99424C2.53543 8.48488 2.59666 7.99023 2.71333 7.51679C2.82928 7.04359 3.00019 6.5916 3.21811 6.16854L0.666016 3.61645L4.84839 4.17547L2.70296 1.51562L7.70301 4.33023C7.70301 4.33023 4.6148 5.46513 4.6148 9.0574C4.6148 12.6497 8.71136 15.1702 8.71136 15.1702Z" fill="#D6C8B0"/>
    </g>
    <defs>
        <clipPath id="clip0_9584_1629">
            <rect width="31.5961" height="31.5961" fill="white" transform="translate(0.666016 0.202148)"/>
        </clipPath>
    </defs>
</svg>