<svg width="84" height="36" viewBox="0 0 84 36" fill="none" xmlns="http://www.w3.org/2000/svg">
<g clip-path="url(#clip0_11232_765)">
<path d="M27.1971 18.0009C27.1971 24.5447 21.8924 29.8494 15.3485 29.8494C15.1028 29.8494 14.8591 29.8422 14.6174 29.8272C13.6037 29.7657 12.624 29.5762 11.6949 29.2748C11.3414 29.1608 10.995 29.0297 10.6571 28.8841C6.44658 27.0672 3.5 22.8782 3.5 18.0009C3.5 11.457 8.80468 6.15234 15.3485 6.15234C21.8924 6.15234 27.1971 11.457 27.1971 18.0009Z" fill="#33ADC1"/>
<path d="M14.6178 29.8276C13.2181 29.7424 11.8844 29.4141 10.6576 28.8845C15.2459 22.6987 7.30273 16.8068 7.30273 16.8068L8.46036 16.5209L11.3075 15.8184C11.3075 15.8182 19.8786 21.0466 14.6178 29.8276Z" fill="#EAE0D3"/>
<path d="M11.6953 29.2758C11.3419 29.1617 10.9955 29.0306 10.6576 28.8851C15.2459 22.6992 7.30273 16.8073 7.30273 16.8073L8.46036 16.5215C8.74095 16.7314 9.13364 17.0046 9.53446 17.3794C11.6237 19.3308 14.6545 23.4837 11.6953 29.2758Z" fill="#D6C8B0"/>
<path d="M14.1661 12.7465C14.1661 15.3047 12.0924 17.3784 9.53401 17.3784C6.97577 17.3784 4.90206 15.3047 4.90206 12.7465C4.90206 12.3644 4.94798 11.9934 5.03549 11.6384C5.12245 11.2835 5.25063 10.9445 5.41407 10.6272L3.5 8.71311L6.63678 9.13237L5.02771 7.13749L8.70615 8.18791L8.30515 6.15234C8.30515 6.15234 11.5052 7.92232 13.0257 9.7026C13.1409 9.83458 13.2482 9.97343 13.3482 10.1181C13.8638 10.8647 14.1661 11.77 14.1661 12.7465Z" fill="#EAE0D3"/>
<path d="M12.0237 11.8005C12.0237 12.427 11.5158 12.935 10.8894 12.935C10.2627 12.935 9.75488 12.427 9.75488 11.8005C9.75488 11.1739 10.2627 10.666 10.8894 10.666C11.5158 10.666 12.0237 11.1739 12.0237 11.8005Z" fill="#2F373B"/>
<path d="M22.657 12.5505C22.1913 12.7938 21.7004 12.7387 21.3063 12.608C20.8454 12.4558 20.5175 12.2014 20.5175 12.2014C20.5175 12.2014 18.8587 10.573 20.1349 9.86408C20.5204 9.65038 20.8324 9.65128 21.0799 9.75759H21.0805C21.6536 10.0033 21.8837 10.8094 21.8837 10.8094C21.8837 10.8094 22.3457 9.61169 23.3675 9.97436C24.3888 10.3365 23.6664 12.0229 22.657 12.5505Z" fill="#FF648D"/>
<path d="M21.3063 12.608C20.8454 12.4558 20.5175 12.2014 20.5175 12.2014C20.5175 12.2014 18.8587 10.573 20.1349 9.86408C20.5204 9.65038 20.8324 9.65128 21.0799 9.75759C20.5151 9.72577 20.4972 11.8073 21.3063 12.608Z" fill="#EA2F69"/>
<path d="M11.7003 11.4383C11.7003 11.6341 11.5415 11.7929 11.3457 11.7929C11.1499 11.7929 10.9912 11.6341 10.9912 11.4383C10.9912 11.2427 11.1499 11.084 11.3457 11.084C11.5415 11.084 11.7003 11.2427 11.7003 11.4383Z" fill="white"/>
<path d="M20.9323 13.0977C20.9323 14.8257 16.2289 20.0723 19.3013 22.2466C20.0693 22.7902 20.9171 22.9674 21.7569 22.9276C22.5965 22.9676 23.4442 22.7902 24.2124 22.2466C27.2846 20.0723 22.5813 14.8257 22.5813 13.0977" fill="#FF648D"/>
<path d="M21.6297 22.9314C20.8313 22.9488 20.0304 22.7627 19.3013 22.2466C16.2289 20.0723 20.9324 14.8255 20.9324 13.0977H21.4365C21.4365 14.8255 19.6088 20.0723 20.8028 22.2466C21.0626 22.7195 21.3459 22.9155 21.6297 22.9314Z" fill="#EA2F69"/>
<path d="M21.6299 22.9315C21.672 22.9312 21.7141 22.9295 21.7563 22.9277C21.7141 22.933 21.672 22.9344 21.6299 22.9315Z" fill="#EA2F69"/>
<path d="M21.883 22.9315C21.8409 22.9344 21.799 22.933 21.7568 22.9277C21.799 22.9295 21.8409 22.9312 21.883 22.9315Z" fill="#EA2F69"/>
<path d="M24.848 12.7933L13.1259 14.731C13.1259 14.731 12.7168 14.1105 12.5678 13.2879C12.4353 12.5544 12.5097 11.6601 13.2676 10.9023L24.848 12.7933Z" fill="#FFD62C"/>
<path d="M24.8486 12.793L13.1265 14.7307C13.1265 14.7307 12.7173 14.1102 12.5684 13.2876L24.8486 12.793Z" fill="#FFB92E"/>
<path d="M9.53401 17.3776C6.97577 17.3776 4.90206 15.3039 4.90206 12.7457C4.90206 12.3637 4.94798 11.9927 5.03549 11.6376C5.12245 11.2827 5.25063 10.9437 5.41407 10.6264L3.5 8.71234L6.63678 9.1316L5.02771 7.13672L8.77774 9.24767C8.77774 9.24767 6.46159 10.0989 6.46159 12.793C6.46159 15.4872 9.53401 17.3776 9.53401 17.3776Z" fill="#D6C8B0"/>
</g>
<path d="M75.6761 23.1574C75.0366 23.1574 74.4629 22.9997 73.9549 22.6844C73.4468 22.3603 73.0439 21.9267 72.7461 21.3836C72.457 20.8318 72.3125 20.2099 72.3125 19.5179C72.3125 18.8259 72.4702 18.204 72.7855 17.6521C73.1096 17.1003 73.5432 16.6667 74.0863 16.3514C74.6381 16.0273 75.2556 15.8652 75.9389 15.8652C76.6221 15.8652 77.2352 16.0273 77.7783 16.3514C78.3214 16.6667 78.7506 17.1003 79.0659 17.6521C79.39 18.204 79.5521 18.8259 79.5521 19.5179H79.0396C79.0396 20.2099 78.8907 20.8318 78.5929 21.3836C78.3039 21.9267 77.9053 22.3603 77.3973 22.6844C76.8892 22.9997 76.3155 23.1574 75.6761 23.1574ZM75.9389 21.9749C76.3856 21.9749 76.7841 21.8697 77.1345 21.6595C77.4849 21.4405 77.7608 21.1471 77.9623 20.7792C78.1637 20.4026 78.2644 19.9821 78.2644 19.5179C78.2644 19.0449 78.1637 18.6244 77.9623 18.2565C77.7608 17.8799 77.4849 17.5864 77.1345 17.3762C76.7841 17.1572 76.3856 17.0477 75.9389 17.0477C75.5009 17.0477 75.1023 17.1572 74.7432 17.3762C74.3928 17.5864 74.1125 17.8799 73.9023 18.2565C73.7009 18.6244 73.6001 19.0449 73.6001 19.5179C73.6001 19.9821 73.7009 20.4026 73.9023 20.7792C74.1125 21.1471 74.3928 21.4405 74.7432 21.6595C75.1023 21.8697 75.5009 21.9749 75.9389 21.9749ZM78.882 23.1179C78.6893 23.1179 78.5272 23.0566 78.3958 22.934C78.2732 22.8026 78.2119 22.6406 78.2119 22.4479V20.4376L78.4615 19.0449L79.5521 19.5179V22.4479C79.5521 22.6406 79.4864 22.8026 79.355 22.934C79.2324 23.0566 79.0747 23.1179 78.882 23.1179Z" fill="black"/>
<path d="M71.3513 22.9472C71.2374 23.0523 71.0754 23.1048 70.8651 23.1048C70.6637 23.0961 70.506 23.0348 70.3921 22.9209L67.1994 19.4916L70.2082 16.128C70.3221 16.0054 70.4797 15.9353 70.6812 15.9178C70.8914 15.9003 71.0535 15.9441 71.1673 16.0492C71.2987 16.1718 71.3732 16.312 71.3907 16.4697C71.4082 16.6186 71.36 16.7543 71.2462 16.877L68.868 19.4259L71.3907 22.1325C71.5046 22.2464 71.5615 22.3822 71.5615 22.5399C71.5615 22.6888 71.4914 22.8245 71.3513 22.9472ZM66.1482 23.118C65.9555 23.118 65.8023 23.0567 65.6884 22.934C65.5745 22.8026 65.5176 22.6406 65.5176 22.4479V16.5879C65.5176 16.3864 65.5745 16.2244 65.6884 16.1018C65.8023 15.9791 65.9555 15.9178 66.1482 15.9178C66.3497 15.9178 66.5118 15.9791 66.6344 16.1018C66.7658 16.2244 66.8315 16.3864 66.8315 16.5879V18.7821H68.5133V20.0172H66.8315V22.4479C66.8315 22.6406 66.7658 22.8026 66.6344 22.934C66.5118 23.0567 66.3497 23.118 66.1482 23.118Z" fill="black"/>
<path d="M60.602 23.1574C59.875 23.1574 59.2268 23.0041 58.6575 22.6975C58.0969 22.3822 57.6545 21.953 57.3304 21.4099C57.0151 20.858 56.8574 20.2274 56.8574 19.5179C56.8574 18.7996 57.0063 18.1689 57.3041 17.6259C57.6107 17.074 58.0312 16.6448 58.5655 16.3382C59.0998 16.0229 59.713 15.8652 60.4049 15.8652C61.0882 15.8652 61.675 16.0185 62.1656 16.3251C62.6561 16.6229 63.0284 17.039 63.2824 17.5733C63.5452 18.0989 63.6765 18.7076 63.6765 19.3996C63.6765 19.566 63.6196 19.7062 63.5057 19.8201C63.3919 19.9252 63.2473 19.9777 63.0722 19.9777H57.7771V18.9266H63.0327L62.494 19.2945C62.4853 18.8565 62.3977 18.4667 62.2313 18.1251C62.0648 17.7748 61.8283 17.4988 61.5218 17.2974C61.2152 17.0959 60.8429 16.9952 60.4049 16.9952C59.9057 16.9952 59.4765 17.1047 59.1173 17.3237C58.767 17.5426 58.4998 17.8448 58.3158 18.2302C58.1319 18.6069 58.0399 19.0361 58.0399 19.5179C58.0399 19.9996 58.1494 20.4288 58.3684 20.8055C58.5874 21.1821 58.8896 21.48 59.275 21.6989C59.6604 21.9179 60.1027 22.0274 60.602 22.0274C60.8736 22.0274 61.1495 21.9792 61.4298 21.8829C61.7188 21.7778 61.951 21.6595 62.1261 21.5281C62.2575 21.4318 62.3977 21.3836 62.5466 21.3836C62.7043 21.3748 62.84 21.4186 62.9539 21.515C63.1028 21.6464 63.1816 21.7909 63.1904 21.9486C63.1992 22.1062 63.1291 22.242 62.9802 22.3559C62.6824 22.5924 62.3101 22.7851 61.8634 22.934C61.4254 23.0829 61.005 23.1574 60.602 23.1574Z" fill="black"/>
<path d="M52.0762 15.9316C52.2076 15.9316 52.3258 15.9667 52.4309 16.0368C52.536 16.1068 52.6192 16.2163 52.6806 16.3652L55.3872 22.2383C55.466 22.4135 55.4748 22.5712 55.4135 22.7113C55.3521 22.8427 55.247 22.9435 55.0981 23.0135C54.9054 23.1011 54.739 23.123 54.5988 23.0792C54.4587 23.0354 54.3404 22.9259 54.2441 22.7508L51.774 17.1404H52.4441L49.8951 22.7508C49.8163 22.9172 49.698 23.0267 49.5403 23.0792C49.3914 23.123 49.225 23.1011 49.0411 23.0135C48.8746 22.9347 48.7564 22.8296 48.6863 22.6982C48.625 22.5668 48.6381 22.4135 48.7257 22.2383L51.4455 16.3652C51.5769 16.0762 51.7871 15.9316 52.0762 15.9316Z" fill="black"/>
<path d="M44.4673 23.1574C43.7402 23.1574 43.092 23.0041 42.5227 22.6975C41.9621 22.3822 41.5198 21.953 41.1957 21.4099C40.8803 20.858 40.7227 20.2274 40.7227 19.5179C40.7227 18.7996 40.8716 18.1689 41.1694 17.6259C41.476 17.074 41.8964 16.6448 42.4307 16.3382C42.965 16.0229 43.5782 15.8652 44.2702 15.8652C44.9534 15.8652 45.5403 16.0185 46.0308 16.3251C46.5213 16.6229 46.8936 17.039 47.1476 17.5733C47.4104 18.0989 47.5418 18.7076 47.5418 19.3996C47.5418 19.566 47.4848 19.7062 47.371 19.8201C47.2571 19.9252 47.1126 19.9777 46.9374 19.9777H41.6424V18.9266H46.898L46.3593 19.2945C46.3505 18.8565 46.2629 18.4667 46.0965 18.1251C45.9301 17.7748 45.6936 17.4988 45.387 17.2974C45.0804 17.0959 44.7081 16.9952 44.2702 16.9952C43.7709 16.9952 43.3417 17.1047 42.9826 17.3237C42.6322 17.5426 42.365 17.8448 42.1811 18.2302C41.9971 18.6069 41.9052 19.0361 41.9052 19.5179C41.9052 19.9996 42.0147 20.4288 42.2336 20.8055C42.4526 21.1821 42.7548 21.48 43.1402 21.6989C43.5256 21.9179 43.968 22.0274 44.4673 22.0274C44.7388 22.0274 45.0147 21.9792 45.295 21.8829C45.5841 21.7778 45.8162 21.6595 45.9914 21.5281C46.1228 21.4318 46.2629 21.3836 46.4118 21.3836C46.5695 21.3748 46.7053 21.4186 46.8191 21.515C46.968 21.6464 47.0469 21.7909 47.0556 21.9486C47.0644 22.1062 46.9943 22.242 46.8454 22.3559C46.5476 22.5924 46.1753 22.7851 45.7286 22.934C45.2906 23.0829 44.8702 23.1574 44.4673 23.1574Z" fill="black"/>
<path d="M31.6256 23.1053C31.3804 23.1053 31.1921 23.0002 31.0607 22.7899C30.9293 22.5797 30.9161 22.3564 31.0212 22.1199L34.7133 13.3036C34.8447 12.997 35.0593 12.8438 35.3571 12.8438C35.6724 12.8438 35.887 12.997 36.0009 13.3036L39.7061 22.1461C39.8025 22.3914 39.7893 22.6148 39.6667 22.8162C39.5528 23.0089 39.3689 23.1053 39.1148 23.1053C38.9835 23.1053 38.8564 23.0702 38.7338 23.0002C38.6199 22.9213 38.5367 22.8162 38.4842 22.6848L35.1994 14.5912H35.6199L32.2563 22.6848C32.195 22.825 32.103 22.9301 31.9804 23.0002C31.8665 23.0702 31.7483 23.1053 31.6256 23.1053Z" fill="black"/>
<defs>
<clipPath id="clip0_11232_765">
<rect width="23.6971" height="23.6971" fill="white" transform="translate(3.5 6.15234)"/>
</clipPath>
</defs>
</svg>
